<?xml version="1.0" standalone="no"?>
<!DOCTYPE svg PUBLIC "-//W3C//DTD SVG 20010904//EN"
 "http://www.w3.org/TR/2001/REC-SVG-20010904/DTD/svg10.dtd">
<svg version="1.0" xmlns="http://www.w3.org/2000/svg"
 width="1.5em" height="1.5em" viewBox="0 0 200.000000 197.000000"
 preserveAspectRatio="xMidYMid meet">

<g transform="translate(0.000000,197.000000) scale(0.100000,-0.100000)"
fill="#000000" stroke="none">
<path d="M880 1964 c-271 -50 -449 -141 -611 -312 -179 -188 -264 -407 -263
-672 0 -164 23 -268 89 -408 58 -122 114 -199 211 -292 131 -126 281 -207 464
-253 120 -30 339 -30 460 0 237 59 452 202 586 389 62 86 129 234 156 340 29
119 32 322 5 438 -42 175 -125 330 -246 459 -138 144 -312 244 -511 292 -64
16 -290 28 -340 19z m991 -635 c66 -163 84 -351 50 -515 -11 -55 -33 -132 -49
-170 l-27 -69 -845 0 -845 0 -27 69 c-37 92 -68 246 -68 339 0 117 40 297 87
390 l14 27 842 -2 842 -3 26 -66z"/>
<path d="M1626 1125 c10 -15 26 -25 40 -25 24 0 24 0 24 -115 l0 -115 -35 0
c-31 0 -35 -3 -35 -25 0 -25 0 -25 95 -25 95 0 95 0 95 25 0 22 -4 25 -35 25
l-35 0 0 140 0 140 -65 0 -65 0 16 -25z"/>
<path d="M202 983 l3 -158 28 -3 c27 -3 27 -3 27 57 l0 61 41 0 c74 0 118 39
119 106 0 30 -7 48 -25 68 -22 24 -30 26 -110 26 l-86 0 3 -157z m152 91 c19
-18 20 -28 6 -55 -8 -14 -21 -19 -55 -19 l-45 0 0 45 0 45 39 0 c23 0 46 -7
55 -16z"/>
<path d="M537 1048 c-21 -7 -27 -16 -25 -32 2 -13 9 -19 18 -17 44 13 93 12
101 0 18 -29 10 -36 -38 -32 -39 4 -53 1 -75 -17 -36 -28 -38 -77 -5 -108 26
-25 95 -30 115 -10 9 9 12 9 12 0 0 -7 11 -12 25 -12 25 0 25 0 25 95 0 91 -1
97 -26 120 -29 27 -76 32 -127 13z m81 -124 c12 -4 22 -14 22 -24 0 -20 -52
-45 -75 -36 -25 9 -30 37 -10 52 21 15 30 17 63 8z"/>
<path d="M823 1050 c-12 -5 -27 -19 -33 -31 -19 -35 2 -67 65 -94 55 -25 71
-50 39 -62 -9 -3 -31 1 -49 10 -31 15 -34 15 -50 -3 -16 -18 -15 -19 14 -34
38 -20 100 -20 129 0 33 23 30 77 -6 103 -16 11 -40 23 -55 26 -14 4 -31 13
-38 21 -16 19 11 28 60 20 27 -4 42 -2 51 8 25 31 -73 58 -127 36z"/>
<path d="M1098 1040 c-55 -42 -61 -142 -13 -194 20 -21 33 -26 73 -26 50 0 92
25 92 54 0 20 -43 28 -53 11 -12 -22 -64 -19 -77 4 -36 68 24 156 73 107 16
-17 57 -10 57 9 0 22 -39 47 -82 52 -34 4 -49 0 -70 -17z"/>
<path d="M1383 1049 c-34 -10 -37 -16 -27 -43 5 -12 10 -13 25 -5 11 5 37 9
57 7 28 -2 38 -8 40 -23 2 -18 -3 -20 -52 -20 -63 0 -82 -13 -92 -62 -9 -45
30 -83 84 -83 21 0 43 5 50 12 9 9 12 9 12 0 0 -7 11 -12 25 -12 25 0 25 0 25
99 0 96 -1 100 -26 120 -28 22 -68 25 -121 10z m75 -125 c35 -10 25 -46 -16
-58 -25 -7 -36 -6 -48 6 -24 23 -8 48 36 57 3 0 15 -2 28 -5z"/>
</g>
</svg>
